<?xml version="1.0" standalone="no"?>
<!DOCTYPE svg PUBLIC "-//W3C//DTD SVG 20010904//EN"
 "http://www.w3.org/TR/2001/REC-SVG-20010904/DTD/svg10.dtd">
<svg version="1.0" xmlns="http://www.w3.org/2000/svg"
 width="513.000000pt" height="513.000000pt" viewBox="0 0 513.000000 513.000000"
 preserveAspectRatio="xMidYMid meet">
<metadata>
Created by potrace 1.11, written by Peter Selinger 2001-2013
</metadata>
<g transform="translate(0.000000,513.000000) scale(0.100000,-0.100000)"
fill="#000000" stroke="none">
<path d="M2497 4644 c-1 -1 -36 -4 -77 -8 -337 -29 -626 -165 -874 -410 -230
-228 -356 -460 -418 -776 -17 -88 -22 -151 -23 -270 0 -270 31 -416 138 -640
35 -74 52 -102 225 -365 69 -104 171 -260 227 -345 95 -145 170 -259 483 -735
146 -221 291 -444 347 -532 22 -35 43 -63 47 -63 4 0 13 10 19 22 7 12 77 122
157 243 80 121 159 243 177 270 35 54 175 269 260 400 61 93 266 410 350 540
31 50 77 119 100 155 221 337 234 359 291 491 34 80 78 244 91 339 10 71 10
370 1 435 -24 156 -58 271 -121 405 -39 85 -141 250 -153 250 -4 0 -19 -12
-33 -27 -105 -110 -232 -163 -386 -164 -84 0 -93 2 -165 21 -244 66 -420 344
-379 600 13 80 17 98 28 119 6 11 7 22 3 25 -16 9 -305 27 -315 20z m269 -927
c77 -24 118 -43 170 -83 146 -109 222 -256 225 -436 2 -55 7 -67 23 -51 16 16
90 31 140 28 62 -4 117 -29 167 -78 129 -126 93 -339 -71 -424 l-55 -28 -740
0 c-683 1 -745 2 -797 19 -120 37 -212 145 -236 274 -41 229 145 434 378 415
28 -2 62 -8 76 -13 34 -13 44 -13 44 3 0 7 16 45 35 85 37 79 119 173 192 223
39 26 157 72 208 82 44 8 195 -2 241 -16z"/>
</g>
</svg>
